<svg width="32" height="29" viewBox="0 0 32 29" fill="none" xmlns="http://www.w3.org/2000/svg">
<path fill-rule="evenodd" clip-rule="evenodd" d="M30.1117 12.0164C29.2862 12.0864 28.5603 11.4741 28.4902 10.6486C28.2702 8.05591 27.854 5.48232 27.433 2.87921L27.433 2.87919L27.433 2.87908L27.3296 2.23873C27.1977 1.42086 27.7538 0.650961 28.5717 0.51911C29.3896 0.387259 30.1595 0.943385 30.2913 1.76125L30.3975 2.41846L30.3975 2.41849C30.8153 5.00058 31.2494 7.68338 31.4795 10.3949C31.5495 11.2204 30.9371 11.9464 30.1117 12.0164ZM20.2733 16.2606C19.6712 16.8296 18.7218 16.8029 18.1528 16.2008L12.6577 10.3867C12.0886 9.78462 12.1154 8.83525 12.7175 8.26621C13.3195 7.69718 14.2689 7.72395 14.8379 8.32602L20.3331 14.1401C20.9021 14.7422 20.8753 15.6916 20.2733 16.2606ZM5.22554 24.1429C4.8353 23.9946 4.48075 23.925 4.1924 23.8818C4.07185 23.8637 3.95279 23.8489 3.85676 23.837L3.81573 23.8319C3.70506 23.8181 3.62421 23.8074 3.55115 23.795C3.34368 23.7596 3.25293 23.7294 3.09014 23.5572C2.5211 22.9551 1.57173 22.9283 0.969664 23.4974C0.367594 24.0664 0.340818 25.0158 0.909855 25.6178C1.63282 26.3828 2.38304 26.6393 3.04777 26.7524C3.3347 26.8013 3.51795 26.8222 3.65596 26.8379H3.65599C3.85978 26.8612 3.96493 26.8732 4.15968 26.9472C5.06033 27.2895 5.96969 27.5318 6.82654 27.7431C7.06 27.8007 7.287 27.8555 7.50941 27.9091C8.12827 28.0583 8.71154 28.1989 9.29956 28.3685C10.0955 28.5981 10.9269 28.139 11.1565 27.343C11.3861 26.547 10.927 25.7156 10.131 25.486C9.47352 25.2964 8.79685 25.1333 8.15994 24.9798L8.1598 24.9797C7.94982 24.9291 7.74416 24.8796 7.54493 24.8304C6.71512 24.6258 5.94996 24.4183 5.22554 24.1429Z" fill="#EC7973"/>
</svg>
