<svg width="27" height="33" viewBox="0 0 27 33" fill="none" xmlns="http://www.w3.org/2000/svg">
<path fill-rule="evenodd" clip-rule="evenodd" d="M24.9825 3.9999C25.8109 4.00955 26.4903 3.34584 26.4999 2.51746C26.5095 1.68909 25.8458 1.00975 25.0175 1.0001L16.9714 0.906435C16.143 0.896791 15.4637 1.5605 15.4541 2.38887C15.4444 3.21724 16.1081 3.89659 16.9365 3.90623L24.9825 3.9999ZM9.51646 15.4422C9.95074 14.7367 10.8747 14.5169 11.5802 14.9511L18.3928 19.1449C19.0983 19.5792 19.3182 20.5031 18.8839 21.2086C18.4496 21.9141 17.5257 22.1339 16.8202 21.6996L10.0075 17.5059C9.30203 17.0716 9.08218 16.1477 9.51646 15.4422ZM1.11177 22.0882C1.89097 21.8069 2.75068 22.2105 3.03198 22.9897C3.91553 25.4372 4.98368 27.8154 6.06407 30.2209L6.32974 30.8126C6.66877 31.5685 6.33086 32.4561 5.57499 32.7952C4.81911 33.1342 3.93151 32.7963 3.59248 32.0404L3.31979 31.4331C2.24794 29.0471 1.13428 26.5681 0.210228 24.0084C-0.0710715 23.2292 0.332561 22.3695 1.11177 22.0882Z" fill="#EC7973"/>
</svg>
